{
  "accessors": [
    {
      "bufferView": 2,
      "componentType": 5126,
      "count": 15726,
      "max": [
        12.198750495910645,
        12.385139465332031,
        28.308307647705078
      ],
      "min": [
        -12.267923355102539,
        -12.080085754394531,
        -11.021349906921387
      ],
      "type": "VEC3"
    },
    {
      "bufferView": 2,
      "byteOffset": 188712,
      "componentType": 5126,
      "count": 15726,
      "max": [
        1,
        1,
        1
      ],
      "min": [
        -1,
        -1,
        -1
      ],
      "type": "VEC3"
    },
    {
      "bufferView": 3,
      "componentType": 5126,
      "count": 15726,
      "max": [
        1,
        1,
        0.99975413084030151,
        1
      ],
      "min": [
        -1,
        -1,
        -0.99976605176925659,
        -1
      ],
      "type": "VEC4"
    },
    {
      "bufferView": 1,
      "componentType": 5126,
      "count": 15726,
      "max": [
        0.99595654010772705,
        0.99891853332519531
      ],
      "min": [
        0.0041067786514759064,
        0.0066064940765500069
      ],
      "type": "VEC2"
    },
    {
      "bufferView": 0,
      "componentType": 5125,
      "count": 65640,
      "max": [
        15725
      ],
      "min": [
        0
      ],
      "type": "SCALAR"
    },
    {
      "bufferView": 2,
      "byteOffset": 377424,
      "componentType": 5126,
      "count": 14648,
      "max": [
        12.198750495910645,
        12.385139465332031,
        28.308307647705078
      ],
      "min": [
        -12.267923355102539,
        -12.080085754394531,
        -11.466625213623047
      ],
      "type": "VEC3"
    },
    {
      "bufferView": 2,
      "byteOffset": 553200,
      "componentType": 5126,
      "count": 14648,
      "max": [
        1,
        1,
        1
      ],
      "min": [
        -1,
        -1,
        -1
      ],
      "type": "VEC3"
    },
    {
      "bufferView": 3,
      "byteOffset": 251616,
      "componentType": 5126,
      "count": 14648,
      "max": [
        1,
        1,
        0.99975413084030151,
        1
      ],
      "min": [
        -1,
        -1,
        -0.99976605176925659,
        -1
      ],
      "type": "VEC4"
    },
    {
      "bufferView": 1,
      "byteOffset": 125808,
      "componentType": 5126,
      "count": 14648,
      "max": [
        0.99763435125350952,
        0.99891853332519531
      ],
      "min": [
        0.0041067786514759064,
        0.0066064940765500069
      ],
      "type": "VEC2"
    },
    {
      "bufferView": 0,
      "byteOffset": 262560,
      "componentType": 5125,
      "count": 61920,
      "max": [
        14647
      ],
      "min": [
        0
      ],
      "type": "SCALAR"
    },
    {
      "bufferView": 2,
      "byteOffset": 728976,
      "componentType": 5126,
      "count": 25676,
      "max": [
        34.34942626953125,
        34.727943420410156,
        294.08303833007812
      ],
      "min": [
        -34.34942626953125,
        -34.727943420410156,
        -1.1662826538085938
      ],
      "type": "VEC3"
    },
    {
      "bufferView": 2,
      "byteOffset": 1037088,
      "componentType": 5126,
      "count": 25676,
      "max": [
        1,
        1,
        1
      ],
      "min": [
        -1,
        -1,
        -1
      ],
      "type": "VEC3"
    },
    {
      "bufferView": 3,
      "byteOffset": 485984,
      "componentType": 5126,
      "count": 25676,
      "max": [
        1,
        1,
        0.99986946582794189,
        1
      ],
      "min": [
        -1,
        -1,
        -0.99740713834762573,
        -1
      ],
      "type": "VEC4"
    },
    {
      "bufferView": 1,
      "byteOffset": 242992,
      "componentType": 5126,
      "count": 25676,
      "max": [
        0.99950003623962402,
        0.99928385019302368
      ],
      "min": [
        0.00050000002374872565,
        0.00050000002374872565
      ],
      "type": "VEC2"
    },
    {
      "bufferView": 0,
      "byteOffset": 510240,
      "componentType": 5125,
      "count": 124020,
      "max": [
        25675
      ],
      "min": [
        0
      ],
      "type": "SCALAR"
    },
    {
      "bufferView": 2,
      "byteOffset": 1345200,
      "componentType": 5126,
      "count": 25676,
      "max": [
        34.34942626953125,
        34.727943420410156,
        294.08303833007812
      ],
      "min": [
        -34.34942626953125,
        -34.727943420410156,
        -1.1662826538085938
      ],
      "type": "VEC3"
    },
    {
      "bufferView": 2,
      "byteOffset": 1653312,
      "componentType": 5126,
      "count": 25676,
      "max": [
        1,
        1,
        1
      ],
      "min": [
        -1,
        -1,
        -1
      ],
      "type": "VEC3"
    },
    {
      "bufferView": 3,
      "byteOffset": 896800,
      "componentType": 5126,
      "count": 25676,
      "max": [
        1,
        1,
        0.99986946582794189,
        1
      ],
      "min": [
        -1,
        -1,
        -0.99740713834762573,
        -1
      ],
      "type": "VEC4"
    },
    {
      "bufferView": 1,
      "byteOffset": 448400,
      "componentType": 5126,
      "count": 25676,
      "max": [
        0.99950003623962402,
        0.99928385019302368
      ],
      "min": [
        0.00050000002374872565,
        0.00050000002374872565
      ],
      "type": "VEC2"
    },
    {
      "bufferView": 0,
      "byteOffset": 1006320,
      "componentType": 5125,
      "count": 124020,
      "max": [
        25675
      ],
      "min": [
        0
      ],
      "type": "SCALAR"
    },
    {
      "bufferView": 2,
      "byteOffset": 1961424,
      "componentType": 5126,
      "count": 1428,
      "max": [
        2.3385565280914307,
        1.5170842409133911,
        3.9566588401794434
      ],
      "min": [
        -2.3409340381622314,
        -1.375434398651123,
        1.7870233058929443
      ],
      "type": "VEC3"
    },
    {
      "bufferView": 2,
      "byteOffset": 1978560,
      "componentType": 5126,
      "count": 1428,
      "max": [
        0.99992597103118896,
        0.99950677156448364,
        0.96671289205551147
      ],
      "min": [
        -0.99822020530700684,
        -0.99968636035919189,
        -0.96525472402572632
      ],
      "type": "VEC3"
    },
    {
      "bufferView": 3,
      "byteOffset": 1307616,
      "componentType": 5126,
      "count": 1428,
      "max": [
        0.99958318471908569,
        0.99849945306777954,
        0.997844398021698,
        1
      ],
      "min": [
        -0.99970906972885132,
        -0.99871248006820679,
        -0.99742168188095093,
        -1
      ],
      "type": "VEC4"
    },
    {
      "bufferView": 0,
      "byteOffset": 1502400,
      "componentType": 5125,
      "count": 8280,
      "max": [
        1427
      ],
      "min": [
        0
      ],
      "type": "SCALAR"
    },
    {
      "bufferView": 2,
      "byteOffset": 1995696,
      "componentType": 5126,
      "count": 1608,
      "max": [
        3.3651580810546875,
        1.5371240377426147,
        4.0401687622070312
      ],
      "min": [
        -1.2025389671325684,
        -1.3950372934341431,
        -0.054652094841003418
      ],
      "type": "VEC3"
    },
    {
      "bufferView": 2,
      "byteOffset": 2014992,
      "componentType": 5126,
      "count": 1608,
      "max": [
        0.9986998438835144,
        0.99966645240783691,
        0.9981461763381958
      ],
      "min": [
        -0.99911504983901978,
        -0.99856716394424438,
        -0.99790871143341064
      ],
      "type": "VEC3"
    },
    {
      "bufferView": 3,
      "byteOffset": 1330464,
      "componentType": 5126,
      "count": 1608,
      "max": [
        0.99875730276107788,
        0.99589931964874268,
        0.99623340368270874,
        1
      ],
      "min": [
        -0.9997628927230835,
        -0.99857944250106812,
        -0.99141097068786621,
        -1
      ],
      "type": "VEC4"
    },
    {
      "bufferView": 0,
      "byteOffset": 1535520,
      "componentType": 5125,
      "count": 8496,
      "max": [
        1607
      ],
      "min": [
        0
      ],
      "type": "SCALAR"
    }
  ],
  "asset": {
    "extras": {
      "author": "Alexandre Orlans (https://sketchfab.com/alex_or)",
      "license": "CC-BY-4.0 (http://creativecommons.org/licenses/by/4.0/)",
      "source": "https://sketchfab.com/models/c41eecada6084360800c00d4d1950267",
      "title": "Retro Light - old&clean model"
    },
    "generator": "Sketchfab-3.19.6",
    "version": "2.0"
  },
  "bufferViews": [
    {
      "buffer": 0,
      "byteLength": 1569504,
      "byteOffset": 0,
      "name": "floatBufferViews",
      "target": 34963
    },
    {
      "buffer": 0,
      "byteLength": 653808,
      "byteOffset": 1569504,
      "byteStride": 8,
      "name": "floatBufferViews",
      "target": 34962
    },
    {
      "buffer": 0,
      "byteLength": 2034288,
      "byteOffset": 2223312,
      "byteStride": 12,
      "name": "floatBufferViews",
      "target": 34962
    },
    {
      "buffer": 0,
      "byteLength": 1356192,
      "byteOffset": 4257600,
      "byteStride": 16,
      "name": "floatBufferViews",
      "target": 34962
    }
  ],
  "buffers": [
    {
      "byteLength": 5613792,
      "uri": "scene.bin"
    }
  ],
  "extensionsRequired": [
    "KHR_materials_pbrSpecularGlossiness"
  ],
  "extensionsUsed": [
    "KHR_materials_pbrSpecularGlossiness"
  ],
  "images": [
    {
      "uri": "textures/clean_retro_light_mat_diffuse.png"
    },
    {
      "uri": "textures/clean_retro_light_mat_specularGlossiness.png"
    },
    {
      "uri": "textures/clean_retro_light_mat_normal.png"
    },
    {
      "uri": "textures/old_bulb_light_mat_diffuse.png"
    },
    {
      "uri": "textures/old_bulb_light_mat_specularGlossiness.png"
    },
    {
      "uri": "textures/old_bulb_light_mat_normal.png"
    },
    {
      "uri": "textures/old_retro_light_mat_diffuse.png"
    },
    {
      "uri": "textures/old_retro_light_mat_specularGlossiness.png"
    },
    {
      "uri": "textures/old_retro_light_mat_normal.png"
    },
    {
      "uri": "textures/clean_bulb_light_mat_diffuse.png"
    },
    {
      "uri": "textures/clean_bulb_light_mat_specularGlossiness.png"
    },
    {
      "uri": "textures/clean_bulb_light_mat_normal.png"
    }
  ],
  "materials": [
    {
      "alphaMode": "BLEND",
      "doubleSided": true,
      "emissiveFactor": [
        0,
        0,
        0
      ],
      "extensions": {
        "KHR_materials_pbrSpecularGlossiness": {
          "diffuseFactor": [
            1,
            1,
            1,
            1
          ],
          "diffuseTexture": {
            "index": 3,
            "texCoord": 0
          },
          "glossinessFactor": 1,
          "specularFactor": [
            1,
            1,
            1
          ],
          "specularGlossinessTexture": {
            "index": 4,
            "texCoord": 0
          }
        }
      },
      "name": "old_bulb_light_mat",
      "normalTexture": {
        "index": 5,
        "scale": 1,
        "texCoord": 0
      }
    },
    {
      "alphaMode": "BLEND",
      "doubleSided": true,
      "emissiveFactor": [
        0,
        0,
        0
      ],
      "extensions": {
        "KHR_materials_pbrSpecularGlossiness": {
          "diffuseFactor": [
            1,
            1,
            1,
            1
          ],
          "diffuseTexture": {
            "index": 9,
            "texCoord": 0
          },
          "glossinessFactor": 1,
          "specularFactor": [
            0.93888893370000004,
            0.93888893370000004,
            0.93888893370000004
          ],
          "specularGlossinessTexture": {
            "index": 10,
            "texCoord": 0
          }
        }
      },
      "name": "clean_bulb_light_mat",
      "normalTexture": {
        "index": 11,
        "scale": 1,
        "texCoord": 0
      }
    },
    {
      "doubleSided": true,
      "emissiveFactor": [
        0,
        0,
        0
      ],
      "extensions": {
        "KHR_materials_pbrSpecularGlossiness": {
          "diffuseFactor": [
            1,
            1,
            1,
            1
          ],
          "diffuseTexture": {
            "index": 0,
            "texCoord": 0
          },
          "glossinessFactor": 1,
          "specularFactor": [
            0.93888893370000004,
            0.93888893370000004,
            0.93888893370000004
          ],
          "specularGlossinessTexture": {
            "index": 1,
            "texCoord": 0
          }
        }
      },
      "name": "clean_retro_light_mat",
      "normalTexture": {
        "index": 2,
        "scale": 1,
        "texCoord": 0
      }
    },
    {
      "doubleSided": true,
      "emissiveFactor": [
        0,
        0,
        0
      ],
      "extensions": {
        "KHR_materials_pbrSpecularGlossiness": {
          "diffuseFactor": [
            1,
            1,
            1,
            1
          ],
          "diffuseTexture": {
            "index": 6,
            "texCoord": 0
          },
          "glossinessFactor": 1,
          "specularFactor": [
            1,
            1,
            1
          ],
          "specularGlossinessTexture": {
            "index": 7,
            "texCoord": 0
          }
        }
      },
      "name": "old_retro_light_mat",
      "normalTexture": {
        "index": 8,
        "scale": 1,
        "texCoord": 0
      }
    },
    {
      "doubleSided": true,
      "emissiveFactor": [
        1,
        1,
        0.49099607300000003
      ],
      "extensions": {
        "KHR_materials_pbrSpecularGlossiness": {
          "diffuseFactor": [
            0.58823499999999995,
            0.58823499999999995,
            0.58823499999999995,
            1
          ],
          "glossinessFactor": 0.40000000000000002,
          "specularFactor": [
            0,
            0,
            0
          ]
        }
      },
      "name": "wire_filament_mat"
    },
    {
      "doubleSided": true,
      "emissiveFactor": [
        0,
        0,
        0
      ],
      "extensions": {
        "KHR_materials_pbrSpecularGlossiness": {
          "diffuseFactor": [
            0.0010482438288189999,
            0.0010482438288189999,
            0.0010482438288189999,
            1
          ],
          "glossinessFactor": 0.41331232419999997,
          "specularFactor": [
            0.064675097200000004,
            0.064675097200000004,
            0.064675097200000004
          ]
        }
      },
      "name": "old_wire_filament_mat"
    }
  ],
  "meshes": [
    {
      "name": "Broken_light_bulb_old_bulb_light_mat_0",
      "primitives": [
        {
          "attributes": {
            "NORMAL": 1,
            "POSITION": 0,
            "TANGENT": 2,
            "TEXCOORD_0": 3
          },
          "indices": 4,
          "material": 0,
          "mode": 4
        }
      ]
    },
    {
      "name": "Clean_light_bulb_clean_bulb_light_mat_0",
      "primitives": [
        {
          "attributes": {
            "NORMAL": 6,
            "POSITION": 5,
            "TANGENT": 7,
            "TEXCOORD_0": 8
          },
          "indices": 9,
          "material": 1,
          "mode": 4
        }
      ]
    },
    {
      "name": "Clean_retro_light_clean_retro_light_mat_0",
      "primitives": [
        {
          "attributes": {
            "NORMAL": 11,
            "POSITION": 10,
            "TANGENT": 12,
            "TEXCOORD_0": 13
          },
          "indices": 14,
          "material": 2,
          "mode": 4
        }
      ]
    },
    {
      "name": "Broken_retro_light_old_retro_light_mat_0",
      "primitives": [
        {
          "attributes": {
            "NORMAL": 16,
            "POSITION": 15,
            "TANGENT": 17,
            "TEXCOORD_0": 18
          },
          "indices": 19,
          "material": 3,
          "mode": 4
        }
      ]
    },
    {
      "name": "wire_filament_wire_filament_mat_0",
      "primitives": [
        {
          "attributes": {
            "NORMAL": 21,
            "POSITION": 20,
            "TANGENT": 22
          },
          "indices": 23,
          "material": 4,
          "mode": 4
        }
      ]
    },
    {
      "name": "wire_filament001_old_wire_filament_mat_0",
      "primitives": [
        {
          "attributes": {
            "NORMAL": 25,
            "POSITION": 24,
            "TANGENT": 26
          },
          "indices": 27,
          "material": 5,
          "mode": 4
        }
      ]
    }
  ],
  "nodes": [
    {
      "children": [
        1
      ],
      "name": "RootNode (gltf orientation matrix)",
      "rotation": [
        -0.70710678118654746,
        -0,
        -0,
        0.70710678118654757
      ]
    },
    {
      "children": [
        2
      ],
      "name": "RootNode (model correction matrix)"
    },
    {
      "children": [
        3
      ],
      "matrix": [
        1,
        0,
        0,
        0,
        0,
        0,
        1,
        0,
        0,
        -1,
        0,
        0,
        0,
        0,
        0,
        1
      ],
      "name": "234409516f23456cb54bf188eb645a8e.fbx"
    },
    {
      "children": [
        4,
        6,
        8,
        10,
        12,
        14
      ],
      "name": "RootNode"
    },
    {
      "children": [
        5
      ],
      "matrix": [
        0.99999999999999234,
        8.7422776573475196e-08,
        8.7422776573475183e-08,
        0,
        8.7422768930733309e-08,
        8.7422776462453555e-08,
        -0.99999999999999245,
        0,
        -8.7422784216216382e-08,
        0.99999999999999245,
        8.7422768801914685e-08,
        0,
        83.125022888183594,
        27.893051147460938,
        0.15252096951007843,
        1
      ],
      "name": "Broken_light_bulb"
    },
    {
      "mesh": 0,
      "name": "Broken_light_bulb_old_bulb_light_mat_0"
    },
    {
      "children": [
        7
      ],
      "matrix": [
        1,
        0,
        0,
        0,
        0,
        8.7422783678903215e-08,
        -0.99999999999999623,
        0,
        0,
        0.99999999999999623,
        8.7422783678903215e-08,
        0,
        -96.821678161621094,
        57.653884887695312,
        0.15252096951007843,
        1
      ],
      "name": "Clean_light_bulb"
    },
    {
      "mesh": 1,
      "name": "Clean_light_bulb_clean_bulb_light_mat_0"
    },
    {
      "children": [
        9
      ],
      "matrix": [
        1,
        0,
        0,
        0,
        0,
        2.2204460492503131e-16,
        -1,
        0,
        0,
        1,
        2.2204460492503131e-16,
        0,
        -96.85626220703125,
        40.926681518554688,
        -6.9141451604082249e-06,
        1
      ],
      "name": "Clean_retro_light"
    },
    {
      "mesh": 2,
      "name": "Clean_retro_light_clean_retro_light_mat_0"
    },
    {
      "children": [
        11
      ],
      "matrix": [
        1,
        0,
        0,
        0,
        0,
        2.2204460492503131e-16,
        -1,
        0,
        0,
        1,
        2.2204460492503131e-16,
        0,
        83.090438842773438,
        11.165847778320312,
        -6.9141451604082249e-06,
        1
      ],
      "name": "Broken_retro_light"
    },
    {
      "mesh": 3,
      "name": "Broken_retro_light_old_retro_light_mat_0"
    },
    {
      "children": [
        13
      ],
      "matrix": [
        1,
        0,
        0,
        0,
        0,
        8.7422783678903215e-08,
        -0.99999999999999623,
        0,
        0,
        0.99999999999999623,
        8.7422783678903215e-08,
        0,
        -96.821678161621094,
        57.653884887695312,
        0.15252096951007843,
        1
      ],
      "name": "wire_filament"
    },
    {
      "mesh": 4,
      "name": "wire_filament_wire_filament_mat_0"
    },
    {
      "children": [
        15
      ],
      "matrix": [
        1,
        0,
        0,
        0,
        0,
        8.7422783678903215e-08,
        -0.99999999999999623,
        0,
        0,
        0.99999999999999623,
        8.7422783678903215e-08,
        0,
        83.125022888183594,
        27.893051147460938,
        0.15252096951007843,
        1
      ],
      "name": "wire_filament001"
    },
    {
      "mesh": 5,
      "name": "wire_filament001_old_wire_filament_mat_0"
    }
  ],
  "samplers": [
    {
      "magFilter": 9729,
      "minFilter": 9987,
      "wrapS": 10497,
      "wrapT": 10497
    }
  ],
  "scene": 0,
  "scenes": [
    {
      "name": "OSG_Scene",
      "nodes": [
        0
      ]
    }
  ],
  "textures": [
    {
      "sampler": 0,
      "source": 0
    },
    {
      "sampler": 0,
      "source": 1
    },
    {
      "sampler": 0,
      "source": 2
    },
    {
      "sampler": 0,
      "source": 3
    },
    {
      "sampler": 0,
      "source": 4
    },
    {
      "sampler": 0,
      "source": 5
    },
    {
      "sampler": 0,
      "source": 6
    },
    {
      "sampler": 0,
      "source": 7
    },
    {
      "sampler": 0,
      "source": 8
    },
    {
      "sampler": 0,
      "source": 9
    },
    {
      "sampler": 0,
      "source": 10
    },
    {
      "sampler": 0,
      "source": 11
    }
  ]
}

