<svg width="36" height="35" viewBox="0 0 36 35" fill="none" xmlns="http://www.w3.org/2000/svg">
<g clip-path="url(#clip0)">
<path d="M17.3145 0.74527C7.7734 0.74527 0.0455017 8.52879 0.0455017 18.1289C0.0455017 25.811 4.99308 32.3255 11.8532 34.6216C12.7167 34.7853 13.0333 34.2479 13.0333 33.7857C13.0333 33.3729 13.0189 32.2792 13.0117 30.8305C8.208 31.8793 7.19488 28.4982 7.19488 28.4982C6.40914 26.4919 5.2737 25.9559 5.2737 25.9559C3.70942 24.8781 5.39459 24.8998 5.39459 24.8998C7.12869 25.0215 8.03963 26.6903 8.03963 26.6903C9.57945 29.3486 12.082 28.5808 13.0692 28.1361C13.2247 27.0119 13.6693 26.2456 14.1629 25.811C10.3278 25.3764 6.29689 23.8814 6.29689 17.2206C6.29689 15.3229 6.96607 13.7728 8.07417 12.556C7.87989 12.1171 7.29706 10.3497 8.22527 7.95513C8.22527 7.95513 9.67155 7.48867 12.9743 9.73695C14.3558 9.35016 15.8236 9.15894 17.2915 9.15025C18.7594 9.15894 20.2273 9.35016 21.6088 9.73695C24.8899 7.48867 26.3362 7.95513 26.3362 7.95513C27.2644 10.3497 26.6816 12.1171 26.5089 12.556C27.6098 13.7728 28.2789 15.3229 28.2789 17.2206C28.2789 23.8988 24.2423 25.3692 20.3999 25.7965C21.0044 26.318 21.5656 27.3842 21.5656 29.0125C21.5656 31.339 21.544 33.2077 21.544 33.7727C21.544 34.229 21.8462 34.7723 22.7313 34.5984C29.6403 32.3183 34.5836 25.7994 34.5836 18.1289C34.5836 8.52879 26.8514 0.74527 17.3145 0.74527Z" fill="#595757"/>
</g>
<defs>
<clipPath id="clip0">
<rect width="34.5381" height="34.7672" fill="white" transform="translate(0.728333 0.226349)"/>
</clipPath>
</defs>
</svg>
