<svg width="47" height="33" viewBox="0 0 47 33" fill="none" xmlns="http://www.w3.org/2000/svg">
<path d="M44.5943 0.870163H2.49587C1.17268 0.870163 0.0901794 1.95985 0.0901794 3.29172V29.9293C0.0901794 31.2611 1.17268 32.351 2.49587 32.351H44.5944C45.9174 32.351 47.0001 31.2613 47.0001 29.9293V3.29172C47 1.95985 45.9175 0.870163 44.5943 0.870163ZM43.6916 2.68624L24.9289 16.8528C24.5916 17.1112 24.0737 17.2729 23.545 17.2705C23.0164 17.2729 22.4986 17.1112 22.1612 16.8528L3.39851 2.68624H43.6916ZM33.6692 17.7875L43.8932 30.501C43.9034 30.5137 43.916 30.5234 43.9269 30.5349H3.16332C3.17413 30.5228 3.18678 30.5137 3.19704 30.501L13.421 17.7875C13.7343 17.3977 13.6749 16.8261 13.2869 16.51C12.8996 16.1947 12.3318 16.2545 12.0185 16.6444L1.89438 29.2337V3.82139L21.0792 18.3056C21.8004 18.8462 22.6777 19.0842 23.5449 19.0865C24.4109 19.0847 25.289 18.8468 26.0106 18.3056L45.1954 3.82139V29.2336L35.0716 16.6444C34.7583 16.2546 34.19 16.1946 33.8032 16.51C33.4153 16.8254 33.3558 17.3977 33.6692 17.7875Z" fill="#595757"/>
</svg>
