<svg width="35" height="33" viewBox="0 0 35 33" fill="none" xmlns="http://www.w3.org/2000/svg">
<g clip-path="url(#clip0)">
<path d="M29.425 28.124H24.3105V20.5382C24.3105 18.7293 24.2716 16.4014 21.6453 16.4014C18.9787 16.4014 18.5714 18.3697 18.5714 20.4047V28.124H13.4569V12.5247H18.3699V14.651H18.4361C19.1226 13.425 20.7919 12.131 23.2859 12.131C28.468 12.131 29.4264 15.3593 29.4264 19.5616V28.124H29.425ZM7.6804 10.3902C6.03409 10.3902 4.71157 9.12882 4.71157 7.57733C4.71157 6.0272 6.03553 4.76721 7.6804 4.76721C9.32096 4.76721 10.6507 6.0272 10.6507 7.57733C10.6507 9.12882 9.31952 10.3902 7.6804 10.3902ZM10.2449 28.124H5.11595V12.5247H10.2449V28.124ZM31.9837 0.265289H2.54862C1.13976 0.265289 0 1.3196 0 2.62045V30.6018C0 31.904 1.13976 32.957 2.54862 32.957H31.9794C33.3868 32.957 34.5381 31.904 34.5381 30.6018V2.62045C34.5381 1.3196 33.3868 0.265289 31.9794 0.265289H31.9837Z" fill="#595757"/>
</g>
<defs>
<clipPath id="clip0">
<rect width="34.5381" height="32.6917" fill="white" transform="translate(0 0.265289)"/>
</clipPath>
</defs>
</svg>
