<svg width="26" height="27" viewBox="0 0 26 27" fill="none" xmlns="http://www.w3.org/2000/svg">
<g clip-path="url(#clip0)">
<path d="M18.6861 26.3366C17.8468 26.3366 17.0146 26.1863 16.2009 25.8868C12.616 24.5677 9.28845 22.4192 6.57786 19.6735C3.86727 16.9279 1.74622 13.5572 0.443991 9.92591C0.0255197 8.75892 -0.0979751 7.55428 0.0770605 6.34531C0.241026 5.21288 0.674071 4.11353 1.32943 3.16607C1.98768 2.21444 2.86524 1.42294 3.86722 0.877147C4.93571 0.295143 6.10195 0 7.33365 0C7.71673 0 8.04781 0.271122 8.12809 0.650518L9.40336 6.67883C9.4611 6.9518 9.37827 7.23583 9.18343 7.43324L7.00435 9.64049C9.05999 13.7804 12.3956 17.1592 16.4826 19.2414L18.6616 17.0341C18.8565 16.8368 19.137 16.753 19.4064 16.8114L25.3577 18.1031C25.7323 18.1845 25.9999 18.5198 25.9999 18.9079C25.9999 20.1555 25.7085 21.3369 25.1339 22.4192C24.5951 23.4342 23.8137 24.3231 22.8742 24.9899C21.9389 25.6537 20.8536 26.0924 19.7356 26.2584C19.3853 26.3105 19.035 26.3365 18.6861 26.3366ZM6.68449 1.68197C5.05981 1.86365 3.61779 2.72624 2.6602 4.11065C1.58337 5.66738 1.33227 7.5821 1.97127 9.36397C4.47489 16.3452 9.86362 21.8037 16.7557 24.3398C18.5147 24.987 20.405 24.7327 21.9418 23.6419C23.3086 22.6719 24.1601 21.2112 24.3395 19.5655L19.4981 18.5147L17.2224 20.8199C16.9803 21.0652 16.6123 21.1303 16.3025 20.9828C11.4688 18.6826 7.55617 14.7193 5.28532 9.82304C5.13974 9.50912 5.20403 9.13641 5.44619 8.89116L7.72191 6.58598L6.68449 1.68197Z" fill="#C3B8B8"/>
</g>
<defs>
<clipPath id="clip0">
<rect width="26" height="26.3366" fill="white"/>
</clipPath>
</defs>
</svg>
