<svg width="183" height="48" viewBox="0 0 183 48" fill="none" xmlns="http://www.w3.org/2000/svg">
<g clip-path="url(#clip0)">
<path d="M29.425 35.124H24.3105V27.5382C24.3105 25.7293 24.2716 23.4014 21.6453 23.4014C18.9787 23.4014 18.5714 25.3697 18.5714 27.4047V35.124H13.4569V19.5247H18.3699V21.651H18.4361C19.1226 20.425 20.7919 19.131 23.2859 19.131C28.468 19.131 29.4264 22.3593 29.4264 26.5616V35.124H29.425ZM7.6804 17.3902C6.03409 17.3902 4.71157 16.1288 4.71157 14.5773C4.71157 13.0272 6.03553 11.7672 7.6804 11.7672C9.32096 11.7672 10.6507 13.0272 10.6507 14.5773C10.6507 16.1288 9.31952 17.3902 7.6804 17.3902ZM10.2449 35.124H5.11595V19.5247H10.2449V35.124ZM31.9837 7.26529H2.54862C1.13976 7.26529 0 8.3196 0 9.62045V37.6018C0 38.904 1.13976 39.957 2.54862 39.957H31.9794C33.3868 39.957 34.5381 38.904 34.5381 37.6018V9.62045C34.5381 8.3196 33.3868 7.26529 31.9794 7.26529H31.9837Z" fill="#595757"/>
</g>
<g clip-path="url(#clip1)">
<path d="M85.3145 6.74527C75.7734 6.74527 68.0455 14.5288 68.0455 24.1289C68.0455 31.811 72.9931 38.3255 79.8532 40.6216C80.7167 40.7853 81.0333 40.2479 81.0333 39.7857C81.0333 39.3729 81.0189 38.2792 81.0117 36.8305C76.208 37.8793 75.1949 34.4982 75.1949 34.4982C74.4091 32.4919 73.2737 31.9559 73.2737 31.9559C71.7094 30.8781 73.3946 30.8998 73.3946 30.8998C75.1287 31.0215 76.0396 32.6903 76.0396 32.6903C77.5794 35.3486 80.082 34.5808 81.0692 34.1361C81.2247 33.0119 81.6693 32.2456 82.1629 31.811C78.3278 31.3764 74.2969 29.8814 74.2969 23.2206C74.2969 21.3229 74.9661 19.7728 76.0742 18.556C75.8799 18.1171 75.2971 16.3497 76.2253 13.9551C76.2253 13.9551 77.6716 13.4887 80.9743 15.7369C82.3558 15.3502 83.8236 15.1589 85.2915 15.1503C86.7594 15.1589 88.2273 15.3502 89.6088 15.7369C92.8899 13.4887 94.3362 13.9551 94.3362 13.9551C95.2644 16.3497 94.6816 18.1171 94.5089 18.556C95.6098 19.7728 96.2789 21.3229 96.2789 23.2206C96.2789 29.8988 92.2423 31.3692 88.3999 31.7965C89.0044 32.318 89.5656 33.3842 89.5656 35.0125C89.5656 37.339 89.544 39.2077 89.544 39.7727C89.544 40.229 89.8462 40.7723 90.7313 40.5984C97.6403 38.3183 102.584 31.7994 102.584 24.1289C102.584 14.5288 94.8514 6.74527 85.3145 6.74527Z" fill="#595757"/>
</g>
<g clip-path="url(#clip2)">
<path d="M180.594 7.87016H138.496C137.173 7.87016 136.09 8.95985 136.09 10.2917V36.9293C136.09 38.2611 137.173 39.351 138.496 39.351H180.594C181.917 39.351 183 38.2613 183 36.9293V10.2917C183 8.95985 181.918 7.87016 180.594 7.87016ZM179.692 9.68624L160.929 23.8528C160.592 24.1112 160.074 24.2729 159.545 24.2705C159.016 24.2729 158.499 24.1112 158.161 23.8528L139.399 9.68624H179.692ZM169.669 24.7875L179.893 37.501C179.903 37.5137 179.916 37.5234 179.927 37.5349H139.163C139.174 37.5228 139.187 37.5137 139.197 37.501L149.421 24.7875C149.734 24.3977 149.675 23.8261 149.287 23.51C148.9 23.1947 148.332 23.2545 148.018 23.6444L137.894 36.2337V10.8214L157.079 25.3056C157.8 25.8462 158.678 26.0842 159.545 26.0865C160.411 26.0847 161.289 25.8468 162.011 25.3056L181.195 10.8214V36.2336L171.072 23.6444C170.758 23.2546 170.19 23.1946 169.803 23.51C169.415 23.8254 169.356 24.3977 169.669 24.7875Z" fill="#595757"/>
</g>
<defs>
<clipPath id="clip0">
<rect width="34.5381" height="32.6917" fill="white" transform="translate(0 7.26529)"/>
</clipPath>
<clipPath id="clip1">
<rect width="34.5381" height="34.7672" fill="white" transform="translate(68.7283 6.22635)"/>
</clipPath>
<clipPath id="clip2">
<rect width="46.9098" height="47.2211" fill="white" transform="translate(136.09)"/>
</clipPath>
</defs>
</svg>
